Coordinates
version=1
nRows=14
nColumns=24
inDegrees=yes

Units are S.I. units (second, meters, Newtons, ...)
Angles are in degrees.

endheader
time	pelvis_tilt	pelvis_list	pelvis_rotation	pelvis_tx	pelvis_ty	pelvis_tz	hip_flexion_r	hip_adduction_r	hip_rotation_r	knee_angle_r	ankle_angle_r	subtalar_angle_r	mtp_angle_r	hip_flexion_l	hip_adduction_l	hip_rotation_l	knee_angle_l	ankle_angle_l	subtalar_angle_l	mtp_angle_l	lumbar_extension	lumbar_bending	lumbar_rotation
      0.72800000	     -1.35201604	      0.28419252	      1.27142036	     -0.46474497	      1.00466128	      0.30304379	     11.60973812	      1.92347016	     -0.99991074	    -20.48442569	     13.43378962	     -5.83964877	     -0.74250495	     14.34529190	      0.26280841	     -1.17788432	    -68.33863343	     -9.03139286	     -4.39693203	      7.58793353	    -13.37217683	      6.04295139	     -0.01126066
      0.73216667	     -1.35315708	      0.40675188	      1.35768237	     -0.45967739	      1.00553461	      0.30306980	     11.10637998	      1.80325996	     -1.04438138	    -20.11691501	     13.49394339	     -5.87013951	     -0.75555596	     14.89533808	      0.37850292	     -1.17251139	    -68.29623099	     -8.42896375	     -4.76080916	      7.56605053	    -13.38124971	      5.87188608	      0.06786052
      0.73633333	     -1.29225321	      0.51160245	      1.44045203	     -0.45463868	      1.00648197	      0.30313011	     10.51466543	      1.71478426	     -1.04426779	    -19.69245731	     13.47829290	     -5.98306971	     -0.80628342	     15.37031007	      0.46665522	     -1.17400933	    -68.19223020	     -7.85866569	     -5.14303392	      7.45576890	    -13.51256526	      5.65355961	      0.39396339
      0.74050000	     -1.30718047	      0.64416518	      1.51408242	     -0.44957237	      1.00731465	      0.30315283	     10.02452083	      1.58746835	     -1.07368593	    -19.31837475	     13.52293291	     -6.01418619	     -0.82101489	     15.90910330	      0.59375987	     -1.18718364	    -68.01979584	     -7.24345368	     -5.48780588	      7.43205083	    -13.50505920	      5.46971038	      0.47226429
      0.74466667	     -1.28187424	      0.77203175	      1.59583454	     -0.44456389	      1.00818981	      0.30318027	      9.48701883	      1.46998653	     -1.09353777	    -18.92526554	     13.49129537	     -6.11276369	     -0.85245209	     16.40103916	      0.71492334	     -1.19456058	    -67.79355745	     -6.63327104	     -5.85412194	      7.37318813	    -13.59896315	      5.23588654	      0.67786510
      0.74883333	     -1.23281151	      0.91160541	      1.65259987	     -0.43948410	      1.00912214	      0.30323395	      8.89494437	      1.34921938	     -1.06298715	    -18.47345296	     13.47331812	     -6.24244535	     -0.91013135	     16.83242261	      0.84118665	     -1.22981054	    -67.46878754	     -6.06082346	     -6.16925136	      7.24841790	    -13.68174717	      5.00410903	      0.98324495
      0.75300000	     -1.21274865	      1.06066404	      1.71780827	     -0.43443265	      1.00997959	      0.30325931	      8.35351841	      1.21167275	     -1.06778782	    -18.06315401	     13.45209858	     -6.34132382	     -0.96908073	     17.28809695	      0.98420948	     -1.25733913	    -67.09422087	     -5.45512016	     -6.47506416	      7.11877916	    -13.74198961	      4.77164525	      1.17100017
      0.75716667	     -1.21071669	      1.21179949	      1.78808154	     -0.42941601	      1.01078508	      0.30326669	      7.84258790	      1.06838943	     -1.09104218	    -17.67267314	     13.43114779	     -6.39978455	     -1.00543072	     17.75615488	      1.13442881	     -1.28032009	    -66.66863525	     -4.83605080	     -6.77379967	      7.04347045	    -13.78731501	      4.53495424	      1.28350031
      0.76133333	     -1.14845299	      1.36967542	      1.84726305	     -0.42434756	      1.01169392	      0.30325693	      7.24019534	      0.92167053	     -1.09463659	    -17.22770224	     13.39012796	     -6.50848829	     -1.06049386	     18.12561245	      1.29168056	     -1.30876047	    -66.15093284	     -4.24947311	     -7.04003303	      6.91939085	    -13.88486664	      4.30537845	      1.48656259
      0.76550000	     -1.18341694	      1.52286920	      1.90966571	     -0.41932625	      1.01239746	      0.30322515	      6.78057354	      0.77140574	     -1.13281566	    -16.86193063	     13.36512009	     -6.55026186	     -1.08328875	     18.60063869	      1.44980415	     -1.33663922	    -65.60423638	     -3.62174746	     -7.30347503	      6.87534055	    -13.86939676	      4.09982213	      1.56135007
      0.76966667	     -1.11194297	      1.68276480	      1.97588992	     -0.41427526	      1.01326651	      0.30321778	      6.16365753	      0.62618482	     -1.13436677	    -16.40515394	     13.30600744	     -6.68234205	     -1.13819738	     18.93118607	      1.61008789	     -1.35493114	    -64.96829311	     -3.05200936	     -7.49686504	      6.74258059	    -13.99339953	      3.84804807	      1.78026535
      0.77383333	     -1.13490482	      1.79640031	      2.03986556	     -0.40926826	      1.01396200	      0.30320829	      5.65476058	      0.53602423	     -1.08572916	    -15.94778442	     13.15775759	     -6.92417105	     -1.46814802	     19.36581105	      1.72534103	     -1.36194969	    -64.31332638	     -2.40901016	     -7.65088024	      5.78346477	    -14.01350806	      3.65146368	      2.05524060
      0.77800000	     -1.13379993	      1.96946443	      2.10341436	     -0.40425609	      1.01463488	      0.30312999	      5.16390791	      0.35958813	     -1.16494479	    -15.60014046	     13.14524818	     -6.91215105	     -1.48621808	     19.74636842	      1.91197828	     -1.38436697	    -63.57619852	     -1.82180140	     -7.86310133	      5.74593627	    -14.04148186	      3.41721917	      2.05106065
      0.78216667	     -1.06939432	      2.14632546	      2.17212572	     -0.39920938	      1.01541734	      0.30302422	      4.57470650	      0.18356762	     -1.23169787	    -15.19052528	     13.09865502	     -6.95946908	     -1.51854735	     20.02595129	      2.11016663	     -1.38446633	    -62.75035252	     -1.29055929	     -8.01134031	      5.66415567	    -14.13551235	      3.20090155	      2.14993233
